<?xml version="1.0" encoding="UTF-8" standalone="no"?>
<!DOCTYPE svg PUBLIC "-//W3C//DTD SVG 1.1//EN"
 "http://www.w3.org/Graphics/SVG/1.1/DTD/svg11.dtd">
<!-- Generated by graphviz version 14.1.5 (20260411.2331)
 -->
<!-- Title: amp Pages: 1 -->
<svg width="1552pt" height="270pt"
 viewBox="0.00 0.00 1552.00 270.00" xmlns="http://www.w3.org/2000/svg" xmlns:xlink="http://www.w3.org/1999/xlink">
<g id="graph0" class="graph" transform="scale(1 1) rotate(0) translate(21.6 248.6)">
<title>amp</title>
<polygon fill="white" stroke="none" points="-21.6,21.6 -21.6,-248.6 1530.81,-248.6 1530.81,21.6 -21.6,21.6"/>
<text xml:space="preserve" text-anchor="start" x="470.35" y="-210.7" font-family="Helvetica,sans-Serif" font-weight="bold" font-size="14.00">AI&#45;Powered DevOps Agent for Prometheus — open5gs + Amazon Managed Prometheus</text>
<text xml:space="preserve" text-anchor="start" x="583.23" y="-199.55" font-family="Helvetica,sans-Serif" font-size="11.00" fill="#5b6b7a">acct 985090322243 · us&#45;east&#45;1 · register&#45;only (no Agent Space created)</text>
<g id="clust1" class="cluster">
<title>cluster_eks</title>
<path fill="#eef5fb" stroke="#2b86c5" d="M786.73,-108C786.73,-108 1211.3,-108 1211.3,-108 1217.3,-108 1223.3,-114 1223.3,-120 1223.3,-120 1223.3,-174 1223.3,-174 1223.3,-180 1217.3,-186 1211.3,-186 1211.3,-186 786.73,-186 786.73,-186 780.73,-186 774.73,-180 774.73,-174 774.73,-174 774.73,-120 774.73,-120 774.73,-114 780.73,-108 786.73,-108"/>
<text xml:space="preserve" text-anchor="start" x="882.39" y="-169.7" font-family="Helvetica,sans-Serif" font-weight="bold" font-size="14.00">Amazon EKS · open5gs&#45;amp&#45;cluster</text>
</g>
<g id="clust2" class="cluster">
<title>cluster_mcp</title>
<path fill="#fff8e6" stroke="#b8902a" d="M580.57,-22C580.57,-22 1185.42,-22 1185.42,-22 1191.42,-22 1197.42,-28 1197.42,-34 1197.42,-34 1197.42,-88 1197.42,-88 1197.42,-94 1191.42,-100 1185.42,-100 1185.42,-100 580.57,-100 580.57,-100 574.57,-100 568.57,-94 568.57,-88 568.57,-88 568.57,-34 568.57,-34 568.57,-28 574.57,-22 580.57,-22"/>
<text xml:space="preserve" text-anchor="start" x="739.75" y="-83.7" font-family="Helvetica,sans-Serif" font-weight="bold" font-size="14.00">Prometheus MCP (CDK · from aws&#45;samples)</text>
</g>
<!-- core -->
<g id="node1" class="node">
<title>core</title>
<path fill="#d6efe0" stroke="black" stroke-width="1.3" d="M909.39,-155C909.39,-155 794.73,-155 794.73,-155 788.73,-155 782.73,-149 782.73,-143 782.73,-143 782.73,-131 782.73,-131 782.73,-125 788.73,-119 794.73,-119 794.73,-119 909.39,-119 909.39,-119 915.39,-119 921.39,-125 921.39,-131 921.39,-131 921.39,-143 921.39,-143 921.39,-149 915.39,-155 909.39,-155"/>
<text xml:space="preserve" text-anchor="start" x="795.43" y="-137.55" font-family="Helvetica,sans-Serif" font-size="11.00">open5gs 5G core+RAN</text>
<text xml:space="preserve" text-anchor="start" x="792.81" y="-128.45" font-family="Helvetica,sans-Serif" font-size="9.00">AMF·SMF·UPF·… + gNB/UEs</text>
</g>
<!-- promagent -->
<g id="node2" class="node">
<title>promagent</title>
<path fill="#d6e7f5" stroke="black" stroke-width="1.3" d="M1203.3,-153C1203.3,-153 1027.14,-153 1027.14,-153 1021.14,-153 1015.14,-147 1015.14,-141 1015.14,-141 1015.14,-129 1015.14,-129 1015.14,-123 1021.14,-117 1027.14,-117 1027.14,-117 1203.3,-117 1203.3,-117 1209.3,-117 1215.3,-123 1215.3,-129 1215.3,-129 1215.3,-141 1215.3,-141 1215.3,-147 1209.3,-153 1203.3,-153"/>
<text xml:space="preserve" text-anchor="start" x="1051.47" y="-135.55" font-family="Helvetica,sans-Serif" font-size="11.00">Prometheus agent / ADOT</text>
<text xml:space="preserve" text-anchor="start" x="1025.22" y="-126.45" font-family="Helvetica,sans-Serif" font-size="9.00">scrape /metrics · remote_write (SigV4, IRSA)</text>
</g>
<!-- core&#45;&gt;promagent -->
<g id="edge1" class="edge">
<title>core&#45;&gt;promagent</title>
<path fill="none" stroke="#5b6b7a" d="M922.02,-136.47C946.99,-136.28 975.86,-136.06 1003.51,-135.85"/>
<polygon fill="#5b6b7a" stroke="#5b6b7a" points="1003.37,-139.35 1013.35,-135.77 1003.32,-132.35 1003.37,-139.35"/>
<text xml:space="preserve" text-anchor="middle" x="968.26" y="-137.38" font-family="Helvetica,sans-Serif" font-size="9.00">scrape</text>
</g>
<!-- amp -->
<g id="node3" class="node">
<title>amp</title>
<path fill="#ffe8cc" stroke="#d9822b" stroke-width="1.3" d="M1509.21,-116.54C1509.21,-118.81 1471.24,-120.66 1424.5,-120.66 1377.77,-120.66 1339.8,-118.81 1339.8,-116.54 1339.8,-116.54 1339.8,-79.46 1339.8,-79.46 1339.8,-77.19 1377.77,-75.34 1424.5,-75.34 1471.24,-75.34 1509.21,-77.19 1509.21,-79.46 1509.21,-79.46 1509.21,-116.54 1509.21,-116.54"/>
<path fill="none" stroke="#d9822b" stroke-width="1.3" d="M1509.21,-116.54C1509.21,-114.27 1471.24,-112.42 1424.5,-112.42 1377.77,-112.42 1339.8,-114.27 1339.8,-116.54"/>
<text xml:space="preserve" text-anchor="start" x="1349.88" y="-98.55" font-family="Helvetica,sans-Serif" font-size="11.00">Amazon Managed Prometheus</text>
<text xml:space="preserve" text-anchor="start" x="1357.38" y="-89.45" font-family="Helvetica,sans-Serif" font-size="9.00">AMP workspace (CDK) · PromQL</text>
</g>
<!-- promagent&#45;&gt;amp -->
<g id="edge2" class="edge">
<title>promagent&#45;&gt;amp</title>
<path fill="none" stroke="#d9822b" stroke-width="1.6" d="M1215.56,-123.04C1251.25,-118.74 1291.42,-113.9 1326.87,-109.64"/>
<polygon fill="#d9822b" stroke="#d9822b" stroke-width="1.6" points="1327.28,-113.11 1336.79,-108.44 1326.44,-106.16 1327.28,-113.11"/>
<text xml:space="preserve" text-anchor="middle" x="1277.55" y="-129.67" font-family="Helvetica,sans-Serif" font-size="9.00">remote_write</text>
<text xml:space="preserve" text-anchor="middle" x="1277.55" y="-119.92" font-family="Helvetica,sans-Serif" font-size="9.00">(SigV4)</text>
</g>
<!-- cog -->
<g id="node4" class="node">
<title>cog</title>
<path fill="#f6ebd2" stroke="black" stroke-width="1.3" d="M661.98,-69C661.98,-69 588.57,-69 588.57,-69 582.57,-69 576.57,-63 576.57,-57 576.57,-57 576.57,-45 576.57,-45 576.57,-39 582.57,-33 588.57,-33 588.57,-33 661.98,-33 661.98,-33 667.98,-33 673.98,-39 673.98,-45 673.98,-45 673.98,-57 673.98,-57 673.98,-63 667.98,-69 661.98,-69"/>
<text xml:space="preserve" text-anchor="start" x="606.52" y="-51.55" font-family="Helvetica,sans-Serif" font-size="11.00">Cognito</text>
<text xml:space="preserve" text-anchor="start" x="586.65" y="-42.45" font-family="Helvetica,sans-Serif" font-size="9.00">M2M OAuth2 client</text>
</g>
<!-- apigw -->
<g id="node5" class="node">
<title>apigw</title>
<path fill="#f6ebd2" stroke="black" stroke-width="1.3" d="M890.26,-69C890.26,-69 813.85,-69 813.85,-69 807.85,-69 801.85,-63 801.85,-57 801.85,-57 801.85,-45 801.85,-45 801.85,-39 807.85,-33 813.85,-33 813.85,-33 890.26,-33 890.26,-33 896.26,-33 902.26,-39 902.26,-45 902.26,-45 902.26,-57 902.26,-57 902.26,-63 896.26,-69 890.26,-69"/>
<text xml:space="preserve" text-anchor="start" x="820.18" y="-51.55" font-family="Helvetica,sans-Serif" font-size="11.00">API Gateway</text>
<text xml:space="preserve" text-anchor="start" x="811.93" y="-42.45" font-family="Helvetica,sans-Serif" font-size="9.00">/mcp (JWT) · /health</text>
</g>
<!-- cog&#45;&gt;apigw -->
<g id="edge4" class="edge">
<title>cog&#45;&gt;apigw</title>
<path fill="none" stroke="#5b6b7a" stroke-dasharray="5,2" d="M674.5,-51C708.25,-51 753.63,-51 789.92,-51"/>
<polygon fill="#5b6b7a" stroke="#5b6b7a" points="789.85,-54.5 799.85,-51 789.85,-47.5 789.85,-54.5"/>
<text xml:space="preserve" text-anchor="middle" x="728.35" y="-52.2" font-family="Helvetica,sans-Serif" font-size="9.00">JWT authz</text>
</g>
<!-- lam -->
<g id="node6" class="node">
<title>lam</title>
<path fill="#f6ebd2" stroke="black" stroke-width="1.3" d="M1177.42,-69C1177.42,-69 1053.01,-69 1053.01,-69 1047.01,-69 1041.01,-63 1041.01,-57 1041.01,-57 1041.01,-45 1041.01,-45 1041.01,-39 1047.01,-33 1053.01,-33 1053.01,-33 1177.42,-33 1177.42,-33 1183.42,-33 1189.42,-39 1189.42,-45 1189.42,-45 1189.42,-57 1189.42,-57 1189.42,-63 1183.42,-69 1177.42,-69"/>
<text xml:space="preserve" text-anchor="start" x="1051.09" y="-51.55" font-family="Helvetica,sans-Serif" font-size="11.00">Prometheus MCP Lambda</text>
<text xml:space="preserve" text-anchor="start" x="1058.22" y="-42.45" font-family="Helvetica,sans-Serif" font-size="9.00">5 tools · aps:QueryMetrics…</text>
</g>
<!-- apigw&#45;&gt;lam -->
<g id="edge3" class="edge">
<title>apigw&#45;&gt;lam</title>
<path fill="none" stroke="#5b6b7a" d="M902.8,-51C938.45,-51 987.36,-51 1029.16,-51"/>
<polygon fill="#5b6b7a" stroke="#5b6b7a" points="1028.95,-54.5 1038.95,-51 1028.95,-47.5 1028.95,-54.5"/>
</g>
<!-- lam&#45;&gt;amp -->
<g id="edge5" class="edge">
<title>lam&#45;&gt;amp</title>
<path fill="none" stroke="#d9822b" d="M1189.82,-62.26C1231.32,-68.6 1283.62,-76.6 1328.21,-83.42"/>
<polygon fill="#d9822b" stroke="#d9822b" points="1327.46,-86.85 1337.88,-84.9 1328.52,-79.93 1327.46,-86.85"/>
<text xml:space="preserve" text-anchor="middle" x="1277.55" y="-81.29" font-family="Helvetica,sans-Serif" font-size="9.00">PromQL query</text>
</g>
<!-- agent -->
<g id="node7" class="node">
<title>agent</title>
<path fill="#e9e0ff" stroke="#7a5fb0" stroke-width="1.3" d="M431.07,-36C431.07,-36 320.91,-36 320.91,-36 314.91,-36 308.91,-30 308.91,-24 308.91,-24 308.91,-12 308.91,-12 308.91,-6 314.91,0 320.91,0 320.91,0 431.07,0 431.07,0 437.07,0 443.07,-6 443.07,-12 443.07,-12 443.07,-24 443.07,-24 443.07,-30 437.07,-36 431.07,-36"/>
<text xml:space="preserve" text-anchor="start" x="326.86" y="-18.55" font-family="Helvetica,sans-Serif" font-size="11.00">AWS DevOps Agent</text>
<text xml:space="preserve" text-anchor="start" x="318.99" y="-9.45" font-family="Helvetica,sans-Serif" font-size="9.00">capability provider (OAuth2)</text>
</g>
<!-- agent&#45;&gt;cog -->
<g id="edge6" class="edge">
<title>agent&#45;&gt;cog</title>
<path fill="none" stroke="#7a5fb0" d="M443.58,-26.89C481.44,-31.94 528.43,-38.21 565,-43.09"/>
<polygon fill="#7a5fb0" stroke="#7a5fb0" points="564.12,-46.5 574.5,-44.36 565.05,-39.57 564.12,-46.5"/>
<text xml:space="preserve" text-anchor="middle" x="509.82" y="-40.58" font-family="Helvetica,sans-Serif" font-size="9.00">1 · OAuth2 token</text>
</g>
<!-- agent&#45;&gt;apigw -->
<g id="edge7" class="edge">
<title>agent&#45;&gt;apigw</title>
<path fill="none" stroke="#7a5fb0" stroke-width="1.6" d="M443.58,-10.54C503.92,-5.09 595.2,-0.09 673.98,-9.25 712.99,-13.79 755.88,-23.77 789.68,-32.83"/>
<polygon fill="#7a5fb0" stroke="#7a5fb0" stroke-width="1.6" points="788.33,-36.09 798.9,-35.35 790.17,-29.34 788.33,-36.09"/>
<text xml:space="preserve" text-anchor="middle" x="625.27" y="-10.45" font-family="Helvetica,sans-Serif" font-size="9.00">2 · MCP + JWT</text>
</g>
<!-- conncdk -->
<g id="node8" class="node">
<title>conncdk</title>
<polygon fill="#fdecec" stroke="#c0392b" stroke-width="1.3" points="179.16,-36 0,-36 0,0 185.16,0 185.16,-30 179.16,-36"/>
<polyline fill="none" stroke="#c0392b" stroke-width="1.3" points="179.16,-36 179.16,-30"/>
<polyline fill="none" stroke="#c0392b" stroke-width="1.3" points="185.16,-30 179.16,-30"/>
<text xml:space="preserve" text-anchor="start" x="32.2" y="-18.55" font-family="Helvetica,sans-Serif" font-size="11.00">agent&#45;connectivity (CDK)</text>
<text xml:space="preserve" text-anchor="start" x="10.08" y="-9.45" font-family="Helvetica,sans-Serif" font-size="9.00">register&#45;service · NO create&#45;agent&#45;space</text>
</g>
<!-- conncdk&#45;&gt;agent -->
<g id="edge8" class="edge">
<title>conncdk&#45;&gt;agent</title>
<path fill="none" stroke="#c0392b" stroke-dasharray="1,5" d="M185.72,-18C221.73,-18 262.57,-18 297.07,-18"/>
<polygon fill="#c0392b" stroke="#c0392b" points="297,-21.5 307,-18 297,-14.5 297,-21.5"/>
<text xml:space="preserve" text-anchor="middle" x="247.03" y="-19.2" font-family="Helvetica,sans-Serif" font-size="9.00">registers MCP</text>
</g>
</g>
</svg>
