<?xml version="1.0" encoding="UTF-8" standalone="no"?>
<!DOCTYPE svg PUBLIC "-//W3C//DTD SVG 1.1//EN"
 "http://www.w3.org/Graphics/SVG/1.1/DTD/svg11.dtd">
<!-- Generated by graphviz version 14.1.5 (20260411.2331)
 -->
<!-- Title: RCFDataflow Pages: 1 -->
<svg width="1105pt" height="299pt"
 viewBox="0.00 0.00 1105.00 299.00" xmlns="http://www.w3.org/2000/svg" xmlns:xlink="http://www.w3.org/1999/xlink">
<g id="graph0" class="graph" transform="scale(1 1) rotate(0) translate(4 295)">
<title>RCFDataflow</title>
<polygon fill="white" stroke="none" points="-4,4 -4,-295 1101.41,-295 1101.41,4 -4,4"/>
<g id="clust1" class="cluster">
<title>cluster_source</title>
<polygon fill="#e8f4fd" stroke="#0972d3" points="8,-8 8,-248 121,-248 121,-8 8,-8"/>
<text xml:space="preserve" text-anchor="middle" x="64.5" y="-233.55" font-family="Helvetica,sans-Serif" font-size="11.00" fill="#0972d3">Metric Sources</text>
</g>
<g id="clust2" class="cluster">
<title>cluster_output</title>
<polygon fill="#f4e6ff" stroke="#7c3aed" points="680.75,-103 680.75,-283 835.75,-283 835.75,-103 680.75,-103"/>
<text xml:space="preserve" text-anchor="middle" x="758.25" y="-268.55" font-family="Helvetica,sans-Serif" font-size="11.00" fill="#7c3aed">RCF Output Metrics</text>
</g>
<!-- amf -->
<g id="node1" class="node">
<title>amf</title>
<polygon fill="#b8daf8" stroke="#0972d3" points="108.5,-220 20.5,-220 20.5,-184 108.5,-184 108.5,-220"/>
<text xml:space="preserve" text-anchor="middle" x="64.5" y="-203.75" font-family="Helvetica,sans-Serif" font-size="10.00">AMF&#45;1 / AMF&#45;2</text>
<text xml:space="preserve" text-anchor="middle" x="64.5" y="-192.5" font-family="Helvetica,sans-Serif" font-size="10.00">registeredsubnbr</text>
</g>
<!-- prom -->
<g id="node5" class="node">
<title>prom</title>
<polygon fill="#ffe8cc" stroke="#ff9900" points="241,-138 150,-138 150,-102 241,-102 241,-138"/>
<text xml:space="preserve" text-anchor="middle" x="195.5" y="-121.75" font-family="Helvetica,sans-Serif" font-size="10.00">Prometheus</text>
<text xml:space="preserve" text-anchor="middle" x="195.5" y="-110.5" font-family="Helvetica,sans-Serif" font-size="10.00">scrape every 15s</text>
</g>
<!-- amf&#45;&gt;prom -->
<g id="edge1" class="edge">
<title>amf&#45;&gt;prom</title>
<path fill="none" stroke="#0972d3" d="M105.7,-183.57C110.93,-180.85 116.15,-177.96 121,-175 135.56,-166.12 150.8,-155.05 163.59,-145.18"/>
<polygon fill="#0972d3" stroke="#0972d3" points="165.53,-148.1 171.24,-139.18 161.21,-142.59 165.53,-148.1"/>
</g>
<!-- smf -->
<g id="node2" class="node">
<title>smf</title>
<polygon fill="#b8daf8" stroke="#0972d3" points="96.12,-166 32.88,-166 32.88,-130 96.12,-130 96.12,-166"/>
<text xml:space="preserve" text-anchor="middle" x="64.5" y="-149.75" font-family="Helvetica,sans-Serif" font-size="10.00">SMF</text>
<text xml:space="preserve" text-anchor="middle" x="64.5" y="-138.5" font-family="Helvetica,sans-Serif" font-size="10.00">sessionnbr</text>
</g>
<!-- smf&#45;&gt;prom -->
<g id="edge2" class="edge">
<title>smf&#45;&gt;prom</title>
<path fill="none" stroke="#0972d3" d="M96.4,-141.29C109.11,-138.53 124.24,-135.25 138.76,-132.1"/>
<polygon fill="#0972d3" stroke="#0972d3" points="139.19,-135.59 148.22,-130.05 137.7,-128.75 139.19,-135.59"/>
</g>
<!-- upf -->
<g id="node3" class="node">
<title>upf</title>
<polygon fill="#b8daf8" stroke="#0972d3" points="99.12,-112 29.88,-112 29.88,-76 99.12,-76 99.12,-112"/>
<text xml:space="preserve" text-anchor="middle" x="64.5" y="-95.75" font-family="Helvetica,sans-Serif" font-size="10.00">UPF&#45;1..4</text>
<text xml:space="preserve" text-anchor="middle" x="64.5" y="-84.5" font-family="Helvetica,sans-Serif" font-size="10.00">gtp_packets</text>
</g>
<!-- upf&#45;&gt;prom -->
<g id="edge3" class="edge">
<title>upf&#45;&gt;prom</title>
<path fill="none" stroke="#0972d3" d="M99.39,-100.83C111.41,-103.25 125.27,-106.05 138.62,-108.74"/>
<polygon fill="#0972d3" stroke="#0972d3" points="137.69,-112.12 148.19,-110.67 139.08,-105.26 137.69,-112.12"/>
</g>
<!-- kube -->
<g id="node4" class="node">
<title>kube</title>
<polygon fill="#b8daf8" stroke="#0972d3" points="113,-57.88 16,-57.88 16,-16.12 113,-16.12 113,-57.88"/>
<text xml:space="preserve" text-anchor="middle" x="64.5" y="-44.38" font-family="Helvetica,sans-Serif" font-size="10.00">kube&#45;state&#45;metrics</text>
<text xml:space="preserve" text-anchor="middle" x="64.5" y="-33.12" font-family="Helvetica,sans-Serif" font-size="10.00">pod_restarts</text>
<text xml:space="preserve" text-anchor="middle" x="64.5" y="-21.88" font-family="Helvetica,sans-Serif" font-size="10.00">pod_status</text>
</g>
<!-- kube&#45;&gt;prom -->
<g id="edge4" class="edge">
<title>kube&#45;&gt;prom</title>
<path fill="none" stroke="#0972d3" d="M106.46,-58.36C111.42,-61.17 116.36,-64.09 121,-67 134.59,-75.53 149.02,-85.67 161.47,-94.79"/>
<polygon fill="#0972d3" stroke="#0972d3" points="159.21,-97.48 169.33,-100.62 163.38,-91.86 159.21,-97.48"/>
</g>
<!-- amp -->
<g id="node6" class="node">
<title>amp</title>
<path fill="#ffd699" stroke="#ff9900" d="M419.75,-143.48C419.75,-146.36 398.52,-148.7 372.38,-148.7 346.23,-148.7 325,-146.36 325,-143.48 325,-143.48 325,-96.52 325,-96.52 325,-93.64 346.23,-91.3 372.38,-91.3 398.52,-91.3 419.75,-93.64 419.75,-96.52 419.75,-96.52 419.75,-143.48 419.75,-143.48"/>
<path fill="none" stroke="#ff9900" d="M419.75,-143.48C419.75,-140.6 398.52,-138.27 372.38,-138.27 346.23,-138.27 325,-140.6 325,-143.48"/>
<text xml:space="preserve" text-anchor="middle" x="372.38" y="-127.38" font-family="Helvetica,sans-Serif" font-size="10.00">Amazon Managed</text>
<text xml:space="preserve" text-anchor="middle" x="372.38" y="-116.12" font-family="Helvetica,sans-Serif" font-size="10.00">Prometheus</text>
<text xml:space="preserve" text-anchor="middle" x="372.38" y="-104.88" font-family="Helvetica,sans-Serif" font-size="10.00">(remote_write)</text>
</g>
<!-- prom&#45;&gt;amp -->
<g id="edge5" class="edge">
<title>prom&#45;&gt;amp</title>
<path fill="none" stroke="#ff9900" stroke-width="2" d="M241.08,-120C262.58,-120 288.68,-120 311.85,-120"/>
<polygon fill="#ff9900" stroke="#ff9900" stroke-width="2" points="311.71,-123.5 321.71,-120 311.71,-116.5 311.71,-123.5"/>
<text xml:space="preserve" text-anchor="middle" x="283" y="-121.2" font-family="Helvetica,sans-Serif" font-size="9.00">SigV4/IRSA</text>
</g>
<!-- rcf -->
<g id="node7" class="node">
<title>rcf</title>
<polygon fill="#88c888" stroke="#1b8b1b" points="651.75,-209.5 509,-209.5 509,-205.5 505,-205.5 505,-201.5 509,-201.5 509,-164.5 505,-164.5 505,-160.5 509,-160.5 509,-156.5 651.75,-156.5 651.75,-209.5"/>
<polyline fill="none" stroke="#1b8b1b" points="509,-205.5 513,-205.5 513,-201.5 509,-201.5"/>
<polyline fill="none" stroke="#1b8b1b" points="509,-164.5 513,-164.5 513,-160.5 509,-160.5"/>
<text xml:space="preserve" text-anchor="middle" x="580.38" y="-196" font-family="Helvetica,sans-Serif" font-size="10.00" fill="white">RCF Detector</text>
<text xml:space="preserve" text-anchor="middle" x="580.38" y="-184.75" font-family="Helvetica,sans-Serif" font-size="10.00" fill="white">eval: 30s</text>
<text xml:space="preserve" text-anchor="middle" x="580.38" y="-173.5" font-family="Helvetica,sans-Serif" font-size="10.00" fill="white">query: sum(registeredsubnbr)</text>
<text xml:space="preserve" text-anchor="middle" x="580.38" y="-162.25" font-family="Helvetica,sans-Serif" font-size="10.00" fill="white">shingle: 8 | sample: 256</text>
</g>
<!-- amp&#45;&gt;rcf -->
<g id="edge6" class="edge">
<title>amp&#45;&gt;rcf</title>
<path fill="none" stroke="#1b8b1b" stroke-width="2" d="M420.12,-134.3C442.66,-141.19 470.4,-149.67 496.37,-157.61"/>
<polygon fill="#1b8b1b" stroke="#1b8b1b" stroke-width="2" points="495.06,-160.88 505.65,-160.45 497.11,-154.18 495.06,-160.88"/>
</g>
<!-- agent -->
<g id="node12" class="node">
<title>agent</title>
<polygon fill="#e8f4fd" stroke="#0972d3" points="630.38,-138 530.38,-138 530.38,-102 630.38,-102 630.38,-138"/>
<text xml:space="preserve" text-anchor="middle" x="580.38" y="-121.75" font-family="Helvetica,sans-Serif" font-size="10.00">DevOps Agent</text>
<text xml:space="preserve" text-anchor="middle" x="580.38" y="-110.5" font-family="Helvetica,sans-Serif" font-size="10.00">(Prometheus MCP)</text>
</g>
<!-- amp&#45;&gt;agent -->
<g id="edge11" class="edge">
<title>amp&#45;&gt;agent</title>
<path fill="none" stroke="#0972d3" d="M420.12,-120C449.3,-120 487.17,-120 518.66,-120"/>
<polygon fill="#0972d3" stroke="#0972d3" points="518.43,-123.5 528.43,-120 518.43,-116.5 518.43,-123.5"/>
<text xml:space="preserve" text-anchor="middle" x="464.38" y="-121.2" font-family="Helvetica,sans-Serif" font-size="9.00">OAuth2/MCP</text>
</g>
<!-- nb -->
<g id="node13" class="node">
<title>nb</title>
<polygon fill="#e8f4fd" stroke="#0972d3" points="613.13,-84 547.63,-84 547.63,-48 613.13,-48 613.13,-84"/>
<text xml:space="preserve" text-anchor="middle" x="580.38" y="-67.75" font-family="Helvetica,sans-Serif" font-size="10.00">SageMaker</text>
<text xml:space="preserve" text-anchor="middle" x="580.38" y="-56.5" font-family="Helvetica,sans-Serif" font-size="10.00">Notebook</text>
</g>
<!-- amp&#45;&gt;nb -->
<g id="edge12" class="edge">
<title>amp&#45;&gt;nb</title>
<path fill="none" stroke="#0972d3" d="M420.12,-107.75C454.99,-98.6 502.28,-86.21 536.25,-77.3"/>
<polygon fill="#0972d3" stroke="#0972d3" points="536.98,-80.73 545.76,-74.81 535.2,-73.96 536.98,-80.73"/>
<text xml:space="preserve" text-anchor="middle" x="464.38" y="-103.73" font-family="Helvetica,sans-Serif" font-size="9.00">SigV4</text>
</g>
<!-- score -->
<g id="node8" class="node">
<title>score</title>
<polygon fill="#d4b8ff" stroke="#7c3aed" points="827.75,-255 688.75,-255 688.75,-219 827.75,-219 827.75,-255"/>
<text xml:space="preserve" text-anchor="middle" x="758.25" y="-238.75" font-family="Helvetica,sans-Serif" font-size="10.00">anomaly_detector:score</text>
<text xml:space="preserve" text-anchor="middle" x="758.25" y="-227.5" font-family="Helvetica,sans-Serif" font-size="10.00">0 = normal | &gt;0.1 = anomaly</text>
</g>
<!-- rcf&#45;&gt;score -->
<g id="edge7" class="edge">
<title>rcf&#45;&gt;score</title>
<path fill="none" stroke="#7c3aed" d="M652.15,-204.73C663.43,-208.2 675.11,-211.78 686.4,-215.25"/>
<polygon fill="#7c3aed" stroke="#7c3aed" points="685.04,-218.49 695.62,-218.08 687.09,-211.8 685.04,-218.49"/>
</g>
<!-- value -->
<g id="node9" class="node">
<title>value</title>
<polygon fill="#d4b8ff" stroke="#7c3aed" points="818,-201 698.5,-201 698.5,-165 818,-165 818,-201"/>
<text xml:space="preserve" text-anchor="middle" x="758.25" y="-184.75" font-family="Helvetica,sans-Serif" font-size="10.00">anomaly_detector:value</text>
<text xml:space="preserve" text-anchor="middle" x="758.25" y="-173.5" font-family="Helvetica,sans-Serif" font-size="10.00">current observed (100)</text>
</g>
<!-- rcf&#45;&gt;value -->
<g id="edge8" class="edge">
<title>rcf&#45;&gt;value</title>
<path fill="none" stroke="#7c3aed" d="M652.15,-183C663.6,-183 675.46,-183 686.91,-183"/>
<polygon fill="#7c3aed" stroke="#7c3aed" points="686.67,-186.5 696.67,-183 686.67,-179.5 686.67,-186.5"/>
</g>
<!-- bands -->
<g id="node10" class="node">
<title>bands</title>
<polygon fill="#d4b8ff" stroke="#7c3aed" points="819.5,-147 697,-147 697,-111 819.5,-111 819.5,-147"/>
<text xml:space="preserve" text-anchor="middle" x="758.25" y="-130.75" font-family="Helvetica,sans-Serif" font-size="10.00">anomaly_detector:bands</text>
<text xml:space="preserve" text-anchor="middle" x="758.25" y="-119.5" font-family="Helvetica,sans-Serif" font-size="10.00">lower: 91 | upper: 101</text>
</g>
<!-- rcf&#45;&gt;bands -->
<g id="edge9" class="edge">
<title>rcf&#45;&gt;bands</title>
<path fill="none" stroke="#7c3aed" d="M652.15,-161.27C663.43,-157.8 675.11,-154.22 686.4,-150.75"/>
<polygon fill="#7c3aed" stroke="#7c3aed" points="687.09,-154.2 695.62,-147.92 685.04,-147.51 687.09,-154.2"/>
</g>
<!-- alert -->
<g id="node11" class="node">
<title>alert</title>
<polygon fill="#d13212" stroke="#d13212" points="1097.41,-222.81 1097.41,-251.19 1042.15,-271.25 964.01,-271.25 908.75,-251.19 908.75,-222.81 964.01,-202.75 1042.15,-202.75 1097.41,-222.81"/>
<text xml:space="preserve" text-anchor="middle" x="1003.08" y="-245.88" font-family="Helvetica,sans-Serif" font-size="10.00" fill="white">🚨 Alert</text>
<text xml:space="preserve" text-anchor="middle" x="1003.08" y="-231.62" font-family="Helvetica,sans-Serif" font-size="10.00" fill="white">RCF5GRegistrationDrop</text>
<text xml:space="preserve" text-anchor="middle" x="1003.08" y="-220.38" font-family="Helvetica,sans-Serif" font-size="10.00" fill="white">for: 0s (instant)</text>
</g>
<!-- score&#45;&gt;alert -->
<g id="edge10" class="edge">
<title>score&#45;&gt;alert</title>
<path fill="none" stroke="#d13212" stroke-width="2" d="M828.19,-237C849.15,-237 872.69,-237 895.53,-237"/>
<polygon fill="#d13212" stroke="#d13212" stroke-width="2" points="895.46,-240.5 905.46,-237 895.46,-233.5 895.46,-240.5"/>
<text xml:space="preserve" text-anchor="middle" x="868.25" y="-238.2" font-family="Helvetica,sans-Serif" font-size="9.00">score &gt; 0.1</text>
</g>
</g>
</svg>
